{
  "accessors": [
    {
      "bufferView": 2,
      "componentType": 5126,
      "count": 17927,
      "max": [
        0.9642266631126404,
        1.0361030101776123,
        2.971621036529541
      ],
      "min": [
        -1.0357733964920044,
        -0.963897168636322,
        -2.9607677459716797
      ],
      "type": "VEC3"
    },
    {
      "bufferView": 2,
      "byteOffset": 215124,
      "componentType": 5126,
      "count": 17927,
      "max": [
        1.0,
        1.0,
        1.0
      ],
      "min": [
        -1.0,
        -1.0,
        -1.0
      ],
      "type": "VEC3"
    },
    {
      "bufferView": 3,
      "componentType": 5126,
      "count": 17927,
      "max": [
        1.0,
        1.0,
        1.0,
        1.0
      ],
      "min": [
        -1.0,
        -1.0,
        -1.0,
        -1.0
      ],
      "type": "VEC4"
    },
    {
      "bufferView": 1,
      "componentType": 5126,
      "count": 17927,
      "max": [
        0.875,
        0.75
      ],
      "min": [
        0.125,
        0.0
      ],
      "type": "VEC2"
    },
    {
      "bufferView": 1,
      "byteOffset": 143416,
      "componentType": 5126,
      "count": 17927,
      "max": [
        0.875,
        0.75
      ],
      "min": [
        0.125,
        0.0
      ],
      "type": "VEC2"
    },
    {
      "bufferView": 1,
      "byteOffset": 286832,
      "componentType": 5126,
      "count": 17927,
      "max": [
        0.875,
        0.75
      ],
      "min": [
        0.125,
        0.0
      ],
      "type": "VEC2"
    },
    {
      "bufferView": 1,
      "byteOffset": 430248,
      "componentType": 5126,
      "count": 17927,
      "max": [
        0.875,
        0.75
      ],
      "min": [
        0.125,
        0.0
      ],
      "type": "VEC2"
    },
    {
      "bufferView": 0,
      "componentType": 5125,
      "count": 35604,
      "type": "SCALAR"
    },
    {
      "bufferView": 2,
      "byteOffset": 430248,
      "componentType": 5126,
      "count": 65533,
      "max": [
        0.9780845046043396,
        1.051102876663208,
        -0.9844516515731812
      ],
      "min": [
        -1.0507733821868896,
        -0.9788971543312073,
        -2.9607677459716797
      ],
      "type": "VEC3"
    },
    {
      "bufferView": 2,
      "byteOffset": 1216644,
      "componentType": 5126,
      "count": 65533,
      "max": [
        1.0,
        1.0,
        0.7113170027732849
      ],
      "min": [
        -1.0,
        -1.0,
        -0.7113170027732849
      ],
      "type": "VEC3"
    },
    {
      "bufferView": 1,
      "byteOffset": 573664,
      "componentType": 5126,
      "count": 65533,
      "max": [
        0.8733928799629211,
        0.75
      ],
      "min": [
        0.125,
        0.0
      ],
      "type": "VEC2"
    },
    {
      "bufferView": 0,
      "byteOffset": 142416,
      "componentType": 5125,
      "count": 115143,
      "type": "SCALAR"
    },
    {
      "bufferView": 2,
      "byteOffset": 2003040,
      "componentType": 5126,
      "count": 65532,
      "max": [
        0.9792266488075256,
        1.051102876663208,
        2.971621036529541
      ],
      "min": [
        -1.0507733821868896,
        -0.9788971543312073,
        -2.9607677459716797
      ],
      "type": "VEC3"
    },
    {
      "bufferView": 2,
      "byteOffset": 2789424,
      "componentType": 5126,
      "count": 65532,
      "max": [
        1.0,
        1.0,
        0.7113142013549805
      ],
      "min": [
        -1.0,
        -1.0,
        -0.7113170027732849
      ],
      "type": "VEC3"
    },
    {
      "bufferView": 1,
      "byteOffset": 1097928,
      "componentType": 5126,
      "count": 65532,
      "max": [
        0.875,
        0.75
      ],
      "min": [
        0.125,
        0.0
      ],
      "type": "VEC2"
    },
    {
      "bufferView": 0,
      "byteOffset": 602988,
      "componentType": 5125,
      "count": 115956,
      "type": "SCALAR"
    },
    {
      "bufferView": 2,
      "byteOffset": 3575808,
      "componentType": 5126,
      "count": 65532,
      "max": [
        0.9792266488075256,
        1.051102876663208,
        2.971621036529541
      ],
      "min": [
        -1.0507733821868896,
        -0.9788971543312073,
        -0.9827312231063843
      ],
      "type": "VEC3"
    },
    {
      "bufferView": 2,
      "byteOffset": 4362192,
      "componentType": 5126,
      "count": 65532,
      "max": [
        1.0,
        1.0,
        0.7113142013549805
      ],
      "min": [
        -1.0,
        -1.0,
        -0.7113142013549805
      ],
      "type": "VEC3"
    },
    {
      "bufferView": 1,
      "byteOffset": 1622184,
      "componentType": 5126,
      "count": 65532,
      "max": [
        0.875,
        0.75
      ],
      "min": [
        0.125,
        0.2380952388048172
      ],
      "type": "VEC2"
    },
    {
      "bufferView": 0,
      "byteOffset": 1066812,
      "componentType": 5125,
      "count": 114819,
      "type": "SCALAR"
    },
    {
      "bufferView": 2,
      "byteOffset": 5148576,
      "componentType": 5126,
      "count": 65534,
      "max": [
        0.9780845046043396,
        1.051102876663208,
        0.9935846328735352
      ],
      "min": [
        -1.0507733821868896,
        -0.9788971543312073,
        -0.9827312231063843
      ],
      "type": "VEC3"
    },
    {
      "bufferView": 2,
      "byteOffset": 5934984,
      "componentType": 5126,
      "count": 65534,
      "max": [
        1.0,
        1.0,
        0.7113170027732849
      ],
      "min": [
        -1.0,
        -1.0,
        -0.7113170027732849
      ],
      "type": "VEC3"
    },
    {
      "bufferView": 1,
      "byteOffset": 2146440,
      "componentType": 5126,
      "count": 65534,
      "max": [
        0.8733928799629211,
        0.75
      ],
      "min": [
        0.125,
        0.0
      ],
      "type": "VEC2"
    },
    {
      "bufferView": 0,
      "byteOffset": 1526088,
      "componentType": 5125,
      "count": 113169,
      "type": "SCALAR"
    },
    {
      "bufferView": 2,
      "byteOffset": 6721392,
      "componentType": 5126,
      "count": 26889,
      "max": [
        0.9792266488075256,
        1.051102876663208,
        0.8994743824005127
      ],
      "min": [
        -1.0507733821868896,
        -0.9788971543312073,
        -2.9607677459716797
      ],
      "type": "VEC3"
    },
    {
      "bufferView": 2,
      "byteOffset": 7044060,
      "componentType": 5126,
      "count": 26889,
      "max": [
        1.0,
        1.0,
        0.7113142013549805
      ],
      "min": [
        -1.0,
        -1.0,
        -0.7113142013549805
      ],
      "type": "VEC3"
    },
    {
      "bufferView": 1,
      "byteOffset": 2670712,
      "componentType": 5126,
      "count": 26889,
      "max": [
        0.875,
        0.75
      ],
      "min": [
        0.125,
        0.2380952388048172
      ],
      "type": "VEC2"
    },
    {
      "bufferView": 0,
      "byteOffset": 1978764,
      "componentType": 5125,
      "count": 48945,
      "type": "SCALAR"
    },
    {
      "bufferView": 2,
      "byteOffset": 7366728,
      "componentType": 5126,
      "count": 12960,
      "max": [
        0.5518071055412292,
        0.9551252126693726,
        2.820560932159424
      ],
      "min": [
        -0.6233537793159485,
        0.9351252317428589,
        -2.95094633102417
      ],
      "type": "VEC3"
    },
    {
      "bufferView": 2,
      "byteOffset": 7522248,
      "componentType": 5126,
      "count": 12960,
      "max": [
        1.0,
        1.0,
        1.0
      ],
      "min": [
        -1.0,
        -1.0,
        -1.0
      ],
      "type": "VEC3"
    },
    {
      "bufferView": 1,
      "byteOffset": 2885824,
      "componentType": 5126,
      "count": 12960,
      "max": [
        1.0,
        1.0
      ],
      "min": [
        0.0,
        0.0
      ],
      "type": "VEC2"
    },
    {
      "bufferView": 0,
      "byteOffset": 2174544,
      "componentType": 5125,
      "count": 19440,
      "type": "SCALAR"
    },
    {
      "bufferView": 2,
      "byteOffset": 7677768,
      "componentType": 5126,
      "count": 3756,
      "max": [
        0.9642266631126404,
        -0.6074895858764648,
        2.9724230766296387
      ],
      "min": [
        -1.0357733964920044,
        -0.9086800813674927,
        -2.9616856575012207
      ],
      "type": "VEC3"
    },
    {
      "bufferView": 2,
      "byteOffset": 7722840,
      "componentType": 5126,
      "count": 3756,
      "max": [
        1.0,
        1.0,
        -0.0
      ],
      "min": [
        -1.0,
        -1.0,
        -0.0
      ],
      "type": "VEC3"
    },
    {
      "bufferView": 1,
      "byteOffset": 2989504,
      "componentType": 5126,
      "count": 3756,
      "max": [
        1.0,
        1.0
      ],
      "min": [
        0.0,
        0.0
      ],
      "type": "VEC2"
    },
    {
      "bufferView": 0,
      "byteOffset": 2252304,
      "componentType": 5125,
      "count": 20322,
      "type": "SCALAR"
    }
  ],
  "asset": {
    "extras": {
      "author": "ABSoln (https://sketchfab.com/ABSoln)",
      "license": "CC-BY-NC-4.0 (http://creativecommons.org/licenses/by-nc/4.0/)",
      "source": "https://sketchfab.com/3d-models/spaceship-corridor-b4bb89f89d90476a8dd54f61a1a1d141",
      "title": "Spaceship Corridor"
    },
    "generator": "Sketchfab-12.66.0",
    "version": "2.0"
  },
  "bufferViews": [
    {
      "buffer": 0,
      "byteLength": 2333592,
      "name": "floatBufferViews",
      "target": 34963
    },
    {
      "buffer": 0,
      "byteLength": 3019552,
      "byteOffset": 2333592,
      "byteStride": 8,
      "name": "floatBufferViews",
      "target": 34962
    },
    {
      "buffer": 0,
      "byteLength": 7767912,
      "byteOffset": 5353144,
      "byteStride": 12,
      "name": "floatBufferViews",
      "target": 34962
    },
    {
      "buffer": 0,
      "byteLength": 286832,
      "byteOffset": 13121056,
      "byteStride": 16,
      "name": "floatBufferViews",
      "target": 34962
    }
  ],
  "buffers": [
    {
      "byteLength": 13407888,
      "uri": "scene.bin"
    }
  ],
  "extensionsUsed": [
    "KHR_materials_clearcoat"
  ],
  "images": [
    {
      "uri": "textures/metal_baseColor.png"
    },
    {
      "uri": "textures/metal_metallicRoughness.png"
    },
    {
      "uri": "textures/metal_normal.png"
    }
  ],
  "materials": [
    {
      "doubleSided": true,
      "name": "metal",
      "normalTexture": {
        "index": 2
      },
      "pbrMetallicRoughness": {
        "baseColorTexture": {
          "index": 0
        },
        "metallicRoughnessTexture": {
          "index": 1
        }
      }
    },
    {
      "doubleSided": true,
      "name": "Material",
      "pbrMetallicRoughness": {
        "baseColorFactor": [
          0.350554,
          0.350554,
          0.350554,
          1.0
        ],
        "roughnessFactor": 0.4
      }
    },
    {
      "doubleSided": true,
      "emissiveFactor": [
        1.0,
        1.0,
        1.0
      ],
      "extensions": {
        "KHR_materials_clearcoat": {
          "clearcoatFactor": 1.0,
          "clearcoatRoughnessFactor": 0.04
        }
      },
      "name": "Material.004"
    },
    {
      "doubleSided": true,
      "name": "Material.002",
      "pbrMetallicRoughness": {
        "baseColorFactor": [
          0.8,
          0.8,
          0.8,
          1.0
        ],
        "roughnessFactor": 0.5
      }
    }
  ],
  "meshes": [
    {
      "name": "Object_0",
      "primitives": [
        {
          "attributes": {
            "NORMAL": 1,
            "POSITION": 0,
            "TANGENT": 2,
            "TEXCOORD_0": 3,
            "TEXCOORD_1": 4,
            "TEXCOORD_2": 5,
            "TEXCOORD_3": 6
          },
          "indices": 7,
          "material": 0,
          "mode": 4
        }
      ]
    },
    {
      "name": "Object_1",
      "primitives": [
        {
          "attributes": {
            "NORMAL": 9,
            "POSITION": 8,
            "TEXCOORD_0": 10
          },
          "indices": 11,
          "material": 1,
          "mode": 4
        }
      ]
    },
    {
      "name": "Object_2",
      "primitives": [
        {
          "attributes": {
            "NORMAL": 13,
            "POSITION": 12,
            "TEXCOORD_0": 14
          },
          "indices": 15,
          "material": 1,
          "mode": 4
        }
      ]
    },
    {
      "name": "Object_3",
      "primitives": [
        {
          "attributes": {
            "NORMAL": 17,
            "POSITION": 16,
            "TEXCOORD_0": 18
          },
          "indices": 19,
          "material": 1,
          "mode": 4
        }
      ]
    },
    {
      "name": "Object_4",
      "primitives": [
        {
          "attributes": {
            "NORMAL": 21,
            "POSITION": 20,
            "TEXCOORD_0": 22
          },
          "indices": 23,
          "material": 1,
          "mode": 4
        }
      ]
    },
    {
      "name": "Object_5",
      "primitives": [
        {
          "attributes": {
            "NORMAL": 25,
            "POSITION": 24,
            "TEXCOORD_0": 26
          },
          "indices": 27,
          "material": 1,
          "mode": 4
        }
      ]
    },
    {
      "name": "Object_6",
      "primitives": [
        {
          "attributes": {
            "NORMAL": 29,
            "POSITION": 28,
            "TEXCOORD_0": 30
          },
          "indices": 31,
          "material": 2,
          "mode": 4
        }
      ]
    },
    {
      "name": "Object_7",
      "primitives": [
        {
          "attributes": {
            "NORMAL": 33,
            "POSITION": 32,
            "TEXCOORD_0": 34
          },
          "indices": 35,
          "material": 3,
          "mode": 4
        }
      ]
    }
  ],
  "nodes": [
    {
      "children": [
        1
      ],
      "matrix": [
        1.0,
        0.0,
        0.0,
        0.0,
        0.0,
        2.220446049250313e-16,
        -1.0,
        0.0,
        0.0,
        1.0,
        2.220446049250313e-16,
        0.0,
        0.0,
        0.0,
        0.0,
        1.0
      ],
      "name": "Sketchfab_model"
    },
    {
      "children": [
        2
      ],
      "name": "root"
    },
    {
      "children": [
        3
      ],
      "matrix": [
        1.0,
        0.0,
        0.0,
        0.0,
        0.0,
        2.220446049250313e-16,
        1.0,
        0.0,
        0.0,
        -1.0,
        2.220446049250313e-16,
        0.0,
        0.0,
        0.0,
        0.0,
        1.0
      ],
      "name": "GLTF_SceneRootNode"
    },
    {
      "children": [
        4,
        5,
        6,
        7,
        8,
        9,
        10,
        11
      ],
      "matrix": [
        1.0,
        0.0,
        0.0,
        0.0,
        0.0,
        1.0,
        0.0,
        0.0,
        0.0,
        0.0,
        7.599999904632568,
        0.0,
        0.0,
        0.0,
        0.0,
        1.0
      ],
      "name": "Plane_1"
    },
    {
      "mesh": 0,
      "name": "Object_4"
    },
    {
      "mesh": 1,
      "name": "Object_5"
    },
    {
      "mesh": 2,
      "name": "Object_6"
    },
    {
      "mesh": 3,
      "name": "Object_7"
    },
    {
      "mesh": 4,
      "name": "Object_8"
    },
    {
      "mesh": 5,
      "name": "Object_9"
    },
    {
      "mesh": 6,
      "name": "Object_10"
    },
    {
      "mesh": 7,
      "name": "Object_11"
    }
  ],
  "samplers": [
    {
      "magFilter": 9729,
      "minFilter": 9987,
      "wrapS": 10497,
      "wrapT": 10497
    }
  ],
  "scene": 0,
  "scenes": [
    {
      "name": "Sketchfab_Scene",
      "nodes": [
        0
      ]
    }
  ],
  "textures": [
    {
      "sampler": 0,
      "source": 0
    },
    {
      "sampler": 0,
      "source": 1
    },
    {
      "sampler": 0,
      "source": 2
    }
  ]
}
